HIERARCHY
ROOT Hips
{
	OFFSET 0.00000 0.00000 0.00000
	CHANNELS 6 Xposition Yposition Zposition Zrotation Yrotation Xrotation 
	JOINT LHipJoint
	{
		OFFSET 0 0 0
		CHANNELS 3 Zrotation Yrotation Xrotation
		JOINT LeftUpLeg
		{
			OFFSET 1.92384 -1.64427 0.83032
			CHANNELS 3 Zrotation Yrotation Xrotation
			JOINT LeftLeg
			{
				OFFSET 2.52872 -6.94761 0.00000
				CHANNELS 3 Zrotation Yrotation Xrotation
				JOINT LeftFoot
				{
					OFFSET 2.51827 -6.91890 0.00000
					CHANNELS 3 Zrotation Yrotation Xrotation
					JOINT LeftToeBase
					{
						OFFSET 0.22757 -0.62524 2.06528
						CHANNELS 3 Zrotation Yrotation Xrotation
						End Site
						{
							OFFSET 0.00000 -0.00000 1.08218
						}
					}
				}
			}
		}
	}
	JOINT RHipJoint
	{
		OFFSET 0 0 0
		CHANNELS 3 Zrotation Yrotation Xrotation
		JOINT RightUpLeg
		{
			OFFSET -2.09517 -1.64427 0.83032
			CHANNELS 3 Zrotation Yrotation Xrotation
			JOINT RightLeg
			{
				OFFSET -2.55173 -7.01082 0.00000
				CHANNELS 3 Zrotation Yrotation Xrotation
				JOINT RightFoot
				{
					OFFSET -2.50265 -6.87598 0.00000
					CHANNELS 3 Zrotation Yrotation Xrotation
					JOINT RightToeBase
					{
						OFFSET -0.22612 -0.62126 1.98677
						CHANNELS 3 Zrotation Yrotation Xrotation
						End Site
						{
							OFFSET -0.00000 -0.00000 1.04433
						}
					}
				}
			}
		}
	}
	JOINT LowerBack
	{
		OFFSET 0 0 0
		CHANNELS 3 Zrotation Yrotation Xrotation
		JOINT Spine
		{
			OFFSET 0.02839 1.68926 0.31690
			CHANNELS 3 Zrotation Yrotation Xrotation
			JOINT Spine1
			{
				OFFSET -0.01522 1.70183 0.21192
				CHANNELS 3 Zrotation Yrotation Xrotation
				JOINT Neck
				{
					OFFSET 0 0 0
					CHANNELS 3 Zrotation Yrotation Xrotation
					JOINT Neck1
					{
						OFFSET -0.04523 1.88988 0.10630
						CHANNELS 3 Zrotation Yrotation Xrotation
						JOINT Head
						{
							OFFSET 0.05172 1.78070 -0.56858
							CHANNELS 3 Zrotation Yrotation Xrotation
							End Site
							{
								OFFSET 0.01532 1.90392 -0.20434
							}
						}
					}
				}
				JOINT LeftShoulder
				{
					OFFSET 0 0 0
					CHANNELS 3 Zrotation Yrotation Xrotation
					JOINT LeftArm
					{
						OFFSET 3.25522 0.75486 0.22086
						CHANNELS 3 Zrotation Yrotation Xrotation
						JOINT LeftForeArm
						{
							OFFSET 4.85645 -0.00000 0.00000
							CHANNELS 3 Zrotation Yrotation Xrotation
							JOINT LeftHand
							{
								OFFSET 2.79874 -0.00000 0.00000
								CHANNELS 3 Zrotation Yrotation Xrotation
								JOINT LeftFingerBase
								{
									OFFSET 0 0 0
									CHANNELS 3 Zrotation Yrotation Xrotation
									JOINT LeftHandIndex1
									{
										OFFSET 0.57340 -0.00000 0.00000
										CHANNELS 3 Zrotation Yrotation Xrotation
										End Site
										{
											OFFSET 0.46229 -0.00000 0.00000
										}
									}
								}
								JOINT LThumb
								{
									OFFSET 0 0 0
									CHANNELS 3 Zrotation Yrotation Xrotation
									End Site
									{
										OFFSET 0.46935 -0.00000 0.46935
									}
								}
							}
						}
					}
				}
				JOINT RightShoulder
				{
					OFFSET 0 0 0
					CHANNELS 3 Zrotation Yrotation Xrotation
					JOINT RightArm
					{
						OFFSET -3.29079 0.52751 0.36356
						CHANNELS 3 Zrotation Yrotation Xrotation
						JOINT RightForeArm
						{
							OFFSET -4.67018 -0.00000 0.00000
							CHANNELS 3 Zrotation Yrotation Xrotation
							JOINT RightHand
							{
								OFFSET -2.65534 -0.00000 0.00000
								CHANNELS 3 Zrotation Yrotation Xrotation
								JOINT RightFingerBase
								{
									OFFSET 0 0 0
									CHANNELS 3 Zrotation Yrotation Xrotation
									JOINT RightHandIndex1
									{
										OFFSET -0.59407 -0.00000 0.00000
										CHANNELS 3 Zrotation Yrotation Xrotation
										End Site
										{
											OFFSET -0.47895 -0.00000 0.00000
										}
									}
								}
								JOINT RThumb
								{
									OFFSET 0 0 0
									CHANNELS 3 Zrotation Yrotation Xrotation
									End Site
									{
										OFFSET -0.48627 -0.00000 0.48627
									}
								}
							}
						}
					}
				}
			}
		}
	}
}
MOTION
Frames: 5
Frame Time: .0083333
4.3138 17.1140 11.0486 1.3125 15.3359 30.0355 0.0000 0.0000 0.0000 -21.8136 -22.8101 -41.2232 2.2559 9.3798 26.9908 -0.0499 8.5651 -11.1948 0.1964 -2.8535 -7.8712 0.0000 0.0000 0.0000 17.4704 3.8251 -43.1338 -10.7968 -17.8342 62.1198 0.3339 -13.3763 -14.1741 -0.0062 -0.5100 1.4014 3.4243 3.9600 -15.5789 -4.3819 5.0272 -15.1523 -6.1604 2.1069 -7.0093 25.1490 16.0617 -3.8099 -13.7592 23.9673 24.8141 -5.2660 12.0733 13.9264 -0.0000 -0.0000 0.0000 -64.5904 21.0547 78.2697 42.1909 -49.3157 -20.0852 -0.0000 0.0000 -19.8632 -17.4950 26.9769 -8.1373 -7.1250 0.0000 -0.0000 -46.6432 50.9658 -8.4393 -0.0000 -0.0000 0.0000 82.8839 -26.2560 30.1576 -20.0724 30.7295 -5.5683 0.0000 0.0000 11.8307 -11.8022 -11.3713 2.3591 7.1250 -0.0000 -0.0000 13.5855 -41.2021 1.2995
4.3344 17.1144 11.1136 1.2040 15.7553 29.9770 0.0000 0.0000 0.0000 -21.7344 -22.8225 -41.0444 2.2972 9.4596 27.2437 -0.0258 8.3401 -11.3639 0.2312 -3.0947 -8.5426 0.0000 0.0000 0.0000 17.3669 4.0585 -43.6933 -10.8904 -17.8810 62.4251 0.2909 -13.1264 -14.4609 -0.0019 -0.2793 0.7673 3.4206 3.9291 -15.5902 -4.2987 4.9936 -15.1575 -6.0717 2.0963 -7.0206 25.0752 16.0316 -3.7779 -13.7363 23.9458 24.8566 -5.2574 12.0643 13.9176 -0.0000 -0.0000 0.0000 -64.7810 21.1240 78.0832 42.0329 -49.2293 -19.9655 -0.0000 0.0000 -20.0433 -17.8502 27.3417 -8.4135 -7.1250 0.0000 -0.0000 -47.2288 51.1763 -8.8808 -0.0000 -0.0000 0.0000 82.9150 -26.6831 29.8353 -20.2330 30.9220 -5.6506 0.0000 0.0000 11.3569 -11.5776 -11.4817 2.3352 7.1250 -0.0000 -0.0000 13.8072 -41.2907 1.2907
4.3547 17.1101 11.1774 1.1016 16.1376 29.9074 0.0000 0.0000 0.0000 -21.6700 -22.8277 -40.8699 2.3412 9.5433 27.5101 0.0037 8.0969 -11.6187 0.2528 -3.2349 -8.9333 0.0000 0.0000 0.0000 17.2232 4.3309 -44.2324 -10.9638 -17.9173 62.6639 0.2388 -12.8298 -14.8134 -0.0003 -0.1204 0.3308 3.4085 3.9072 -15.5630 -4.2225 4.9731 -15.1633 -5.9871 2.0920 -7.0511 24.9622 16.0183 -3.8257 -13.6457 23.9238 24.9643 -5.2111 12.0525 13.9354 0.0000 -0.0000 0.0000 -64.9716 21.2363 77.8872 41.9815 -49.2010 -19.9265 -0.0000 0.0000 -20.3922 -17.8020 27.7631 -8.5070 -7.1250 0.0000 -0.0000 -47.5395 51.4968 -9.4029 0.0000 -0.0000 0.0000 82.9382 -27.0664 29.5723 -20.3818 31.0996 -5.7272 0.0000 0.0000 10.8913 -11.5246 -11.5256 2.3329 7.1250 -0.0000 -0.0000 13.8640 -41.3292 1.2828
4.3741 17.1047 11.2421 1.0195 16.5073 29.8663 0.0000 0.0000 0.0000 -21.5949 -22.8729 -40.7183 2.3873 9.6300 27.7868 0.0379 7.9098 -12.0323 0.2256 -3.0573 -8.4382 0.0000 0.0000 0.0000 17.0473 4.6478 -44.7858 -11.0120 -17.9410 62.8205 0.1910 -12.5858 -15.1751 -0.0010 0.2046 -0.5622 3.3625 3.8770 -15.5952 -4.1509 4.9430 -15.1594 -5.8847 2.0871 -7.0417 24.8999 16.0000 -3.8270 -13.6323 23.9123 25.0053 -5.2020 12.0454 13.9385 0.0000 0.0000 0.0000 -65.1686 21.3092 77.7201 41.7239 -49.0587 -19.7317 -0.0000 0.0000 -20.5624 -17.6327 27.6040 -8.3781 -7.1250 0.0000 -0.0000 -47.2694 51.4086 -9.2058 0.0000 0.0000 0.0000 82.9706 -27.3573 29.3441 -20.4886 31.2265 -5.7825 0.0000 0.0000 10.4697 -11.4447 -11.5165 2.3146 7.1250 -0.0000 -0.0000 13.9307 -41.3129 1.2950
4.3933 17.0970 11.3072 0.9833 16.8360 29.8314 0.0000 0.0000 0.0000 -21.5716 -22.9210 -40.5669 2.4398 9.7276 28.0991 0.0725 7.6942 -12.3989 0.2337 -3.1115 -8.5893 0.0000 0.0000 0.0000 16.7942 4.9910 -45.3262 -11.0414 -17.9553 62.9159 0.1304 -12.3145 -15.6799 -0.0036 0.3875 -1.0647 3.2360 3.8255 -15.6603 -4.0535 4.8916 -15.1475 -5.7088 2.0806 -7.0150 24.8155 15.9819 -3.7884 -13.6419 23.9248 25.0552 -5.1967 12.0480 13.9435 0.0000 -0.0000 0.0000 -65.4779 21.4115 77.4247 41.5781 -48.9776 -19.6217 -0.0000 0.0000 -20.8576 -17.4876 27.7634 -8.3493 -7.1250 0.0000 -0.0000 -47.2842 51.5521 -9.4032 0.0000 -0.0000 0.0000 82.9040 -27.6308 29.2554 -20.6016 31.3604 -5.8412 0.0000 0.0000 10.0787 -11.3398 -11.5838 2.3060 7.1250 -0.0000 -0.0000 14.0383 -41.3697 1.2853
